# xmcd
#
# Track frame offsets: 
#        150
#        14390
#        28309
#        43958
#        59361
#        74754
#        92175
#        108214
#        124891
#        142172
#        155872
#        174396
#        188038
#        202982
#        224306
#        238556
#        247896
#        258834
#        275012
#        291662
#
# Disc length: 4040 seconds
#
# Revision: 0
# Processed by: cddbd v1.5.2PL0 Copyright (c) Steve Scherf et al.
# Submitted via: ExactAudioCopyFreeDBPlugin 1.0
#
DISCID=3f0fc614
DTITLE=Edith Piaf - Edith Piaf The Album CD1
DYEAR=1900
DGENRE=Retro
TTITLE0=01 La Vie En Rose
TTITLE1=02 Un Refrain Courait Dans La Rue
TTITLE2=03 Hymne A L'amour
TTITLE3=04 La Petite Marie
TTITLE4=05 Chante Moi
TTITLE5=06 Chanson Bleue
TTITLE6=07 Pour Qu'Elle Soit Jolie Ma Chanson
TTITLE7=08 Un Grand Amour Qui S'Acheve
TTITLE8=09 Legende
TTITLE9=10 C'Est L'Amour Qui Fait Qu'On S'Aime
TTITLE10=11 La Belle Histoire D'Amour
TTITLE11=12 T'Es L'Homme Qu'll Me Faut
TTITLE12=13 Padam Padam
TTITLE13=14 My Lost Melody
TTITLE14=15 Notre-Dame De Paris
TTITLE15=16 La Goulante Du Pauvre Jean
TTITLE16=17 Ca Ira
TTITLE17=18 Sous Le Ciel De Paris
TTITLE18=19 Serenade Du Pave
TTITLE19=20 Diable De La Bastille
EXTD=
EXTT0=
EXTT1=
EXTT2=
EXTT3=
EXTT4=
EXTT5=
EXTT6=
EXTT7=
EXTT8=
EXTT9=
EXTT10=
EXTT11=
EXTT12=
EXTT13=
EXTT14=
EXTT15=
EXTT16=
EXTT17=
EXTT18=
EXTT19=
PLAYORDER=
